<svg xmlns="http://www.w3.org/2000/svg" width="27.347" height="32.933" viewBox="0 0 27.347 32.933"><path d="M260.7,13c.227,4.452-2,7.59-6.337,7.921C254.513,16.316,256.938,13.989,260.7,13Z" transform="translate(-240.858 -13)" fill="#fff" fill-rule="evenodd"/><path d="M76.454,133.668a7.773,7.773,0,0,1,3.639-6.587c-1.949-2.043-3.83-3.349-7.1-3.011-1.948.2-3.549,1.31-5.281,1.32-3.267.02-5.644-2.029-8.845-.792-3.015,1.165-4.9,4.726-5.149,8.185-.425,5.927,2.491,12.751,5.677,15.446a6.378,6.378,0,0,0,2.376,1.188c1.909.346,3.084-.886,5.149-1.188,2.812-.411,4.839,1.512,7.261,1.188,3.76-.5,5.554-5.7,6.843-8.663A7.781,7.781,0,0,1,76.454,133.668Z" transform="translate(-53.673 -116.545)" fill="#fff"/></svg>