<svg xmlns="http://www.w3.org/2000/svg" width="36.304" height="36.305" viewBox="0 0 36.304 36.305"><path d="M45,146.366a7.99,7.99,0,0,1-.947,1.578,7.851,7.851,0,0,1-10.986,1.443,8,8,0,0,1-1.157-1.1l-.346-.406L21.9,151.927l.436.721a18.166,18.166,0,0,0,15.45,8.687,18.615,18.615,0,0,0,2.4-.15A18.163,18.163,0,0,0,55.4,147.809l.21-.812-10.4-1.1Zm8.762,1.879a16.8,16.8,0,0,1-2.675,5.11,16.739,16.739,0,0,1-23.43,3.066,16.392,16.392,0,0,1-3.607-3.817l7.124-2.976a8.282,8.282,0,0,0,1.022.9,9.3,9.3,0,0,0,6.868,1.849,9.2,9.2,0,0,0,6.162-3.547,8.449,8.449,0,0,0,.887-1.4Z" transform="translate(-19.682 -125.03)" fill="#fff"/><path d="M17.491,26.381a7.825,7.825,0,0,1,5.29-8.056l.5-.165L23.157,7.7l-.842.135A18.111,18.111,0,0,0,7.692,30.123l.21.827,9.649-4.043ZM8.91,28.951A16.673,16.673,0,0,1,21.729,9.443l.09,7.71A9.14,9.14,0,0,0,17.942,20.1a9.323,9.323,0,0,0-1.924,5.876Z" transform="translate(-7.143 -7.67)" fill="#fff"/><path d="M139.882,18.141a8.278,8.278,0,0,1,2.314,1.232,6.843,6.843,0,0,1,.691.6,7.112,7.112,0,0,1,1.052,1.262,7.281,7.281,0,0,1,1.007,2.224,4.785,4.785,0,0,1,.12.5l.105.511,10.4,1.1-.045-.842A18.449,18.449,0,0,0,153.393,17a12.923,12.923,0,0,0-.842-1.413h0a19.7,19.7,0,0,0-1.172-1.593c-.316-.376-.646-.751-1.007-1.112A15.691,15.691,0,0,0,149,11.633c-.18-.15-.361-.286-.541-.436-.2-.15-.406-.3-.586-.436a14.654,14.654,0,0,0-1.548-.977c-.406-.225-.827-.451-1.277-.661a18,18,0,0,0-5.11-1.5L139.1,7.5l.12,10.46Zm4.584-7.71c.421.2.812.406,1.172.616.466.271.932.556,1.428.9.18.12.361.255.541.391.165.12.331.255.5.391a15.81,15.81,0,0,1,1.262,1.157c.331.331.646.676.932,1.022a16.606,16.606,0,0,1,1.082,1.458,13.378,13.378,0,0,1,.766,1.308,16.89,16.89,0,0,1,1.909,6.267l-7.665-.812c0-.03-.015-.045-.015-.075a8.713,8.713,0,0,0-1.2-2.63,9.334,9.334,0,0,0-1.247-1.5,9.771,9.771,0,0,0-.812-.706,7.018,7.018,0,0,0-1.052-.691,8.305,8.305,0,0,0-1.338-.631l-.09-7.71A16.8,16.8,0,0,1,144.465,10.431Z" transform="translate(-119.268 -7.5)" fill="#fff"/><path d="M158.274,35.337a.771.771,0,0,0,.511-.21l.842-.827a.723.723,0,1,0-1.007-1.037l-.842.827a.731.731,0,0,0-.015,1.022A.625.625,0,0,0,158.274,35.337Z" transform="translate(-134.956 -29.22)" fill="#fff"/><path d="M169.84,51.68a.705.705,0,0,0,.526.225.771.771,0,0,0,.511-.21l2.555-2.495a.723.723,0,0,0-1.007-1.037l-2.555,2.495A.7.7,0,0,0,169.84,51.68Z" transform="translate(-145.214 -41.868)" fill="#fff"/><path d="M187.61,71.925a.7.7,0,0,0,.526.225.771.771,0,0,0,.511-.21l2.6-2.54a.723.723,0,1,0-1.007-1.037l-2.6,2.54A.692.692,0,0,0,187.61,71.925Z" transform="translate(-160.308 -59.025)" fill="#fff"/><path d="M213.989,95.677a.726.726,0,0,0,1.022,0l.466-.466a.723.723,0,0,0-1.022-1.022l-.466.466A.717.717,0,0,0,213.989,95.677Z" transform="translate(-182.72 -80.952)" fill="#fff"/></svg>