<svg xmlns="http://www.w3.org/2000/svg" width="17.583" height="18.559" viewBox="0 0 17.583 18.559"><g transform="translate(-5.08 -3.173)"><path d="M20.047,8.753,10.056,3.4A1.909,1.909,0,0,0,8.487,3.29L17,11.8Z" transform="translate(-2.13 0)" fill="#fff"/><path d="M39.058,20.814,36.18,19.273l-3.245,3.245,3.245,3.245,2.878-1.541A1.934,1.934,0,0,0,39.058,20.814Z" transform="translate(-17.416 -10.067)" fill="#fff"/><path d="M5.577,4.879a1.908,1.908,0,0,0-.5,1.3V20.862a1.908,1.908,0,0,0,.5,1.3l8.64-8.64Z" transform="translate(0 -1.067)" fill="#fff"/><path d="M8.487,38.181a1.909,1.909,0,0,0,1.569-.114l9.99-5.349L17,29.67Z" transform="translate(-2.13 -16.567)" fill="#fff"/></g></svg>