<svg xmlns="http://www.w3.org/2000/svg" xmlns:xlink="http://www.w3.org/1999/xlink" width="239.716" height="102.565" viewBox="0 0 239.716 102.565"><defs><linearGradient id="a" x1="0.484" y1="0.381" x2="0.5" y2="1" gradientUnits="objectBoundingBox"><stop offset="0" stop-color="#fc5168"/><stop offset="1" stop-color="#70f"/></linearGradient><linearGradient id="b" x1="0.5" x2="0.5" y2="1" gradientUnits="objectBoundingBox"><stop offset="0" stop-color="#43dde6"/><stop offset="1" stop-color="#05f"/></linearGradient></defs><text transform="translate(98.716 37)" fill="#364f6b" font-size="23" font-family="Nunito-SemiBold, Nunito" font-weight="600"><tspan x="0" y="22">ZERODASH</tspan></text><path d="M25.013,7.326a5,5,0,0,1,8.619,0l20.58,34.987a5,5,0,0,1-4.31,7.535H8.742a5,5,0,0,1-4.31-7.535Z" transform="matrix(0.53, -0.848, 0.848, 0.53, 0, 49.734)" fill="url(#a)"/><path d="M25.082,6.784a5,5,0,0,1,8.48,0l20.3,32.482a5,5,0,0,1-4.24,7.65H9.021a5,5,0,0,1-4.24-7.65Z" transform="matrix(-0.53, 0.848, -0.848, -0.53, 115.624, 52.831)" fill="url(#b)"/></svg>