<svg xmlns="http://www.w3.org/2000/svg" width="83" height="106" viewBox="0 0 83 106"><g transform="translate(83 106) rotate(180)" fill="none"><path d="M27.532,35.676c4.976-12.709,22.96-12.709,27.935,0L74.986,85.532A15,15,0,0,1,61.019,106H21.981A15,15,0,0,1,8.014,85.532Z" stroke="none"/><path d="M 41.5 33.14491271972656 C 40.21932601928711 33.14491271972656 35.89727401733398 33.51149749755859 34.05058288574219 38.22838592529297 L 14.53185272216797 88.08348083496094 C 13.55274200439453 90.58433532714844 13.85942077636719 93.29095458984375 15.37323760986328 95.50931549072266 C 16.88705444335938 97.72769927978516 19.29560089111328 99.00000762939453 21.98127365112305 99.00000762939453 L 61.01872634887695 99.00000762939453 C 63.70439910888672 99.00000762939453 66.11294555664063 97.72769927978516 67.62676239013672 95.50931549072266 C 69.14057922363281 93.29095458984375 69.44725036621094 90.58433532714844 68.46814727783203 88.08348083496094 L 48.94943618774414 38.22840881347656 C 47.10271072387695 33.51149749755859 42.78067398071289 33.14491271972656 41.5 33.14491271972656 M 41.5 26.14492797851563 C 47.23994064331055 26.14492797851563 52.97988128662109 29.32209777832031 55.46767425537109 35.67644500732422 L 74.98639678955078 85.53153228759766 C 78.83802032470703 95.36940765380859 71.58370971679688 106.0000076293945 61.01872634887695 106.0000076293945 L 21.98127365112305 106.0000076293945 C 11.41629028320313 106.0000076293945 4.161979675292969 95.36940765380859 8.013603210449219 85.53153228759766 L 27.53232574462891 35.67644500732422 C 30.02011871337891 29.32209777832031 35.76005935668945 26.14492797851563 41.5 26.14492797851563 Z" stroke="none" fill="rgba(255,255,255,0.8)"/></g><g transform="translate(38 41)" fill="none" stroke="#fff" stroke-width="5"><rect width="7" height="27" rx="3.5" stroke="none"/><rect x="2.5" y="2.5" width="2" height="22" rx="1" fill="none"/></g></svg>