<svg xmlns="http://www.w3.org/2000/svg" width="34.977" height="39.983" viewBox="0 0 34.977 39.983"><path d="M54.588,21.076a17.448,17.448,0,0,0-3.228-4.687,17.076,17.076,0,0,0-2.245-1.966l1.442-1.917a.819.819,0,0,0-1.311-.983l-1.508,2a16.407,16.407,0,0,0-3.064-1.458,18.806,18.806,0,0,0-2.7-.737,19.853,19.853,0,0,0-1.983-.246V7.639h2.245a.822.822,0,0,0,.819-.819A.833.833,0,0,0,42.233,6H36.088a.822.822,0,0,0-.819.819.833.833,0,0,0,.819.819h2.245v3.392a17.391,17.391,0,0,0-6.948,1.622,17.109,17.109,0,0,0-4.7,3.212,17.728,17.728,0,0,0-4.359,6.669,17.524,17.524,0,0,0-.754,2.753,16.474,16.474,0,0,0-.295,2.835,17.365,17.365,0,0,0,1.671,7.849,17.115,17.115,0,0,0,3.212,4.654,17.49,17.49,0,0,0,6.7,4.342,16.66,16.66,0,0,0,2.687.721,19.857,19.857,0,0,0,2.769.295h.442a17.526,17.526,0,0,0,17.19-14.289,16.834,16.834,0,0,0,.295-2.851A17.768,17.768,0,0,0,54.588,21.076Zm-.262,10.34a17.977,17.977,0,0,1-.672,2.491,16.019,16.019,0,0,1-3.982,6.079,16.241,16.241,0,0,1-4.228,2.884,15.75,15.75,0,0,1-7.079,1.475,16.479,16.479,0,0,1-2.524-.262,17.269,17.269,0,0,1-2.442-.655,15.84,15.84,0,0,1-8.963-8.144,15.7,15.7,0,0,1-1.508-7.112,17.117,17.117,0,0,1,.262-2.573,18.2,18.2,0,0,1,.672-2.507,15.763,15.763,0,0,1,3.949-6.03,16.131,16.131,0,0,1,4.261-2.917,15.876,15.876,0,0,1,6.653-1.475h.41a16.48,16.48,0,0,1,2.524.262,17.268,17.268,0,0,1,2.442.655,15.738,15.738,0,0,1,8.963,8.177,15.7,15.7,0,0,1,1.491,7.063A13.705,13.705,0,0,1,54.326,31.416Z" transform="translate(-21.269 -6)" fill="#fff"/><path d="M116.639,99.939,112.149,104a3.592,3.592,0,0,0-.787-.41,3.317,3.317,0,0,0-.541-.147c-.18-.033-.377-.049-.557-.066a3.691,3.691,0,0,0-1.557.328,3.636,3.636,0,0,0-.934.639,3.524,3.524,0,0,0-.868,1.327,3.318,3.318,0,0,0-.147.541c-.033.18-.049.377-.066.574a3.481,3.481,0,0,0,.328,1.573,3.636,3.636,0,0,0,.639.934,3.459,3.459,0,0,0,1.344.868,3.318,3.318,0,0,0,.541.147c.18.033.377.049.557.066h.082a3.521,3.521,0,0,0,1.475-.328,3.636,3.636,0,0,0,.934-.639,3.7,3.7,0,0,0,.885-1.344,3.318,3.318,0,0,0,.147-.541c.033-.18.049-.377.066-.574a3.413,3.413,0,0,0-.328-1.557,1.44,1.44,0,0,0-.1-.164l4.506-4.064a.827.827,0,0,0,.066-1.163A.868.868,0,0,0,116.639,99.939Zm-4.654,7.276h0a1.981,1.981,0,0,1-.082.295,2.017,2.017,0,0,1-.459.7,1.98,1.98,0,0,1-.492.328,1.85,1.85,0,0,1-1.114.131,1.383,1.383,0,0,1-.279-.082,1.811,1.811,0,0,1-.7-.459,2.637,2.637,0,0,1-.344-.492,2.052,2.052,0,0,1-.18-.819,1.806,1.806,0,0,1,.033-.295,1.981,1.981,0,0,1,.082-.295,1.812,1.812,0,0,1,.459-.7,2.638,2.638,0,0,1,.492-.344,1.809,1.809,0,0,1,.77-.164h.049a1.805,1.805,0,0,1,.295.033,1.384,1.384,0,0,1,.279.082,1.812,1.812,0,0,1,.7.459l.033.033a.016.016,0,0,0,.016.016h.016a2.082,2.082,0,0,1,.295.442,2.052,2.052,0,0,1,.18.819C112.018,107.018,112,107.117,111.985,107.215Z" transform="translate(-92.693 -84.372)" fill="#fff"/></svg>